<?xml version="1.0" encoding="UTF-8"?>
<svg id="Layer_2" data-name="Layer 2" xmlns="http://www.w3.org/2000/svg" viewBox="0 0 1920.87 1859.12">
  <defs>
    <style>
      .cls-1, .cls-2, .cls-3 {
        fill: #fff;
      }

      .cls-4 {
        fill: #fea82f;
      }

      .cls-4, .cls-5, .cls-6, .cls-7, .cls-8, .cls-9, .cls-10, .cls-11, .cls-2, .cls-12, .cls-13, .cls-3, .cls-14, .cls-15 {
        stroke: #423e3b;
      }

      .cls-4, .cls-5, .cls-7, .cls-8, .cls-9, .cls-10, .cls-11, .cls-2, .cls-12, .cls-13, .cls-14, .cls-15, .cls-16 {
        stroke-miterlimit: 10;
      }

      .cls-4, .cls-8, .cls-10, .cls-11, .cls-2, .cls-15 {
        stroke-width: 4.15px;
      }

      .cls-5 {
        stroke-dasharray: 0 0 7.02 7.02;
      }

      .cls-5, .cls-6, .cls-10, .cls-11, .cls-12, .cls-13, .cls-14, .cls-16 {
        fill: none;
      }

      .cls-5, .cls-6, .cls-13, .cls-3, .cls-16 {
        stroke-width: 3.52px;
      }

      .cls-17, .cls-7, .cls-8 {
        fill: #423e3b;
      }

      .cls-18 {
        fill: #e1e8f4;
      }

      .cls-6, .cls-3 {
        stroke-linejoin: round;
      }

      .cls-7, .cls-12 {
        stroke-width: 4.15px;
      }

      .cls-9 {
        stroke-linecap: round;
      }

      .cls-9, .cls-14 {
        stroke-width: 20px;
      }

      .cls-11 {
        stroke-dasharray: 0 0 7.02 7.02;
      }

      .cls-15 {
        fill: #5448c8;
      }

      .cls-16 {
        stroke: #fea82f;
      }
    </style>
  </defs>
  <g id="Layer_1-2" data-name="Layer 1">
    <g>
      <path class="cls-11" d="m1620.82,968.75c-44,188.47-166.58,346.73-331.31,438.37"/>
      <path class="cls-11" d="m282.23,834.85c-.21-6.95-.32-13.93-.32-20.93,0-251.3,136.65-470.68,339.69-587.89"/>
      <g>
        <g>
          <path class="cls-7" d="m1890.44,137.23H708.08c-13.93,0-25.22,11.29-25.22,25.22v782.42c0,13.93,11.29,25.22,25.22,25.22h1182.35c13.93,0,25.23-11.29,25.23-25.22V162.46c0-13.93-11.29-25.22-25.23-25.22Z"/>
          <path class="cls-4" d="m1893.35,109.11H711.44c-14.05,0-25.45,11.39-25.45,25.45v781.97c0,14.05,11.39,25.45,25.45,25.45h1181.91c14.05,0,25.45-11.39,25.45-25.45V134.56c0-14.05-11.4-25.45-25.45-25.45Z"/>
          <path class="cls-12" d="m1916.36,196.43H682.48"/>
          <path class="cls-1" d="m1747.77,172.32c11.07,0,20.04-8.97,20.04-20.04s-8.97-20.04-20.04-20.04-20.04,8.97-20.04,20.04,8.97,20.04,20.04,20.04Z"/>
          <path class="cls-1" d="m1808.17,172.32c11.07,0,20.04-8.97,20.04-20.04s-8.97-20.04-20.04-20.04-20.04,8.97-20.04,20.04,8.97,20.04,20.04,20.04Z"/>
          <path class="cls-1" d="m1868.55,172.32c11.07,0,20.04-8.97,20.04-20.04s-8.97-20.04-20.04-20.04-20.04,8.97-20.04,20.04,8.97,20.04,20.04,20.04Z"/>
          <path class="cls-2" d="m1736.07,784.17v-466.65h-873.61v466.65h873.61Z"/>
          <path class="cls-8" d="m1720.74,768.85l15.13-451.32h-873.61l-15.13,451.32h873.61Z"/>
          <path class="cls-2" d="m1705.42,753.52l30.38-436.05h-873.61l-30.38,436.05h873.61Z"/>
          <path class="cls-17" d="m1482.85,190.22c-33.75,66.02-108.71,121.21-178.71,135.51l-65.37,65.37,1.45-65.37c-55.4-14.25-73.96-69.49-40.24-135.51,16.16-31.73,41.94-60.93,72.05-84.31h224.96c6.22,23.38,2.05,52.58-14.14,84.31Z"/>
          <g>
            <g>
              <circle class="cls-8" cx="931.5" cy="297.41" r="9.54"/>
              <circle class="cls-8" cx="931.5" cy="340.44" r="9.54"/>
              <path class="cls-2" d="m931.41,345.92c-9.22,0-15.91-11.3-15.91-26.88s6.69-26.88,15.91-26.88c2.96,0,5.36,2.4,5.36,5.36s-2.4,5.36-5.36,5.36c-1.2.2-5.18,5.63-5.18,16.15s3.98,15.95,5.19,16.15c2.96,0,5.36,2.4,5.36,5.36s-2.41,5.36-5.37,5.36Z"/>
            </g>
            <g>
              <circle class="cls-8" cx="1174.35" cy="297.41" r="9.54"/>
              <circle class="cls-8" cx="1174.35" cy="340.44" r="9.54"/>
              <path class="cls-2" d="m1174.25,345.92c-9.22,0-15.91-11.3-15.91-26.88s6.69-26.88,15.91-26.88c2.96,0,5.36,2.4,5.36,5.36s-2.4,5.36-5.36,5.36c-1.2.2-5.18,5.63-5.18,16.15s3.98,15.95,5.19,16.15c2.96,0,5.36,2.4,5.36,5.36s-2.41,5.36-5.37,5.36Z"/>
            </g>
            <g>
              <circle class="cls-8" cx="1417.19" cy="297.41" r="9.54"/>
              <circle class="cls-8" cx="1417.19" cy="340.44" r="9.54"/>
              <path class="cls-2" d="m1417.1,345.92c-9.22,0-15.91-11.3-15.91-26.88s6.69-26.88,15.91-26.88c2.96,0,5.36,2.4,5.36,5.36s-2.4,5.36-5.36,5.36c-1.2.2-5.18,5.63-5.18,16.15s3.98,15.95,5.19,16.15c2.96,0,5.36,2.4,5.36,5.36s-2.41,5.36-5.37,5.36Z"/>
            </g>
            <g>
              <circle class="cls-8" cx="1660.04" cy="297.41" r="9.54"/>
              <circle class="cls-8" cx="1660.04" cy="340.44" r="9.54"/>
              <path class="cls-2" d="m1659.95,345.92c-9.22,0-15.91-11.3-15.91-26.88s6.69-26.88,15.91-26.88c2.96,0,5.36,2.4,5.36,5.36s-2.4,5.36-5.36,5.36c-1.2.2-5.18,5.63-5.18,16.15s3.98,15.95,5.19,16.15c2.96,0,5.36,2.4,5.36,5.36s-2.41,5.36-5.37,5.36Z"/>
            </g>
          </g>
          <path class="cls-3" d="m1397.09,160.11c-.02-29.8-8.44-58.99-24.3-84.22-15.86-25.23-38.51-45.48-65.36-58.42-26.85-12.94-56.8-18.05-86.41-14.73-29.61,3.31-57.7,14.91-81.02,33.46-23.32,18.55-40.94,43.3-50.84,71.41-9.89,28.11-11.66,58.44-5.1,87.51,6.57,29.07,21.19,55.7,42.21,76.83,21.01,21.13,47.56,35.91,76.59,42.64l35.77,74.47,35.8-74.47c34.89-8.1,66.02-27.77,88.29-55.83,22.27-28.05,34.39-62.82,34.37-98.65Z"/>
          <path class="cls-17" d="m1258.75,249.7c-4.67,4.63-10.79,7.51-17.34,8.13-6.55.62-13.11-1.04-18.56-4.71-5.46-3.67-9.48-9.11-11.37-15.41-1.89-6.3-1.55-13.06.97-19.12,2.52-6.07,7.08-11.08,12.88-14.17,5.8-3.09,12.5-4.08,18.94-2.8,6.45,1.29,12.25,4.77,16.43,9.85,4.17,5.08,6.45,11.45,6.46,18.03.05,3.76-.67,7.49-2.12,10.97-1.45,3.47-3.58,6.62-6.29,9.23h0Zm-32.75-64.64l-7.65-49.13v-69.79h40.65v69.79l-8.08,49.18-24.91-.05Z"/>
          <path class="cls-18" d="m1366.98,493.89h-365.19c-13.23,0-22.53-10.73-20.77-23.96l4.97-37.34c1.76-13.23,13.92-23.96,27.15-23.96h365.19c13.23,0,22.53,10.73,20.77,23.96l-4.97,37.34c-1.76,13.23-13.92,23.96-27.15,23.96Z"/>
          <path class="cls-18" d="m1553.77,664.76h-365.19c-13.23,0-22.53-10.73-20.77-23.96l4.97-37.34c1.76-13.23,13.92-23.96,27.15-23.96h365.19c13.23,0,22.53,10.73,20.77,23.96l-4.97,37.34c-1.76,13.23-13.92,23.96-27.15,23.96Z"/>
          <g>
            <g>
              <g>
                <path class="cls-16" d="m945.84,409h693.37"/>
                <path class="cls-16" d="m939.54,494.25h693.37"/>
                <path class="cls-16" d="m933.23,579.5h693.37"/>
                <path class="cls-16" d="m926.92,664.76h693.37"/>
              </g>
              <g>
                <path class="cls-16" d="m1594.52,370.96l-24.35,329.12"/>
                <line class="cls-16" x1="1494.8" y1="370.96" x2="1470.45" y2="700.08"/>
                <line class="cls-16" x1="1395.07" y1="370.96" x2="1370.72" y2="700.08"/>
                <line class="cls-16" x1="1295.34" y1="370.96" x2="1270.99" y2="700.08"/>
                <line class="cls-16" x1="1195.61" y1="370.96" x2="1171.26" y2="700.08"/>
                <line class="cls-16" x1="1095.89" y1="370.96" x2="1071.54" y2="700.08"/>
                <path class="cls-16" d="m996.16,370.96l-24.35,329.12"/>
              </g>
              <path class="cls-10" d="m1265.85,410.09l-5.32-.35c-20.7-1.38-54.28,8.76-66.63,24.05-10.83,13.41-15.54,30.75-5.48,46.83h0c14.84,23.71,53.87,13.73,73.34,3.51h0c20.97-11.01,48.69-39.91,32.71-65.47l-.55-.88c-9.79-15.66-27.53-19.47-44.57-16.43-19.21,3.43-42.94,29.26-51.88,47.12l-4.37,8.74"/>
            </g>
            <path class="cls-6" d="m1223.8,433.44c2.59-1.33,5.28-2.46,8.04-3.38.21,1.23.42,2.45.64,3.68,3.98-.86,7.97-1.71,11.95-2.57.46,1.32.71,2.71.74,4.1,6.06-1.2,12.05-2.76,17.94-4.65"/>
            <path class="cls-6" d="m1211.84,451.88c2.18-1.83,4.53-3.47,7-4.89.27,1.71.34,3.44.21,5.17,3.8-1.36,7.6-2.72,11.4-4.09.51-.18,1.04-.37,1.57-.31,1.1.11,1.89,1.22,2.02,2.32s-.25,2.19-.62,3.24c4.35-.61,8.7-1.21,13.05-1.82.27,1.34.53,2.68.8,4.02,5.98-2.39,11.91-4.92,17.77-7.59"/>
            <path class="cls-6" d="m1213.07,471.24c1.58-1.48,3.4-2.7,5.37-3.61.38-.18.84-.34,1.22-.14.78.42.3,1.83,1.01,2.35.37.27.88.17,1.32.05,2.11-.55,4.22-1.09,6.33-1.64.69,1.13,1.12,2.41,1.26,3.73,4.29-.68,8.47-2,12.37-3.92"/>
          </g>
        </g>
        <g>
          <path class="cls-7" d="m1209.65,862.98H27.3c-13.93,0-25.22,11.29-25.22,25.22v782.42c0,13.93,11.29,25.22,25.22,25.22h1182.35c13.93,0,25.23-11.29,25.23-25.22v-782.42c0-13.93-11.29-25.22-25.23-25.22Z"/>
          <path class="cls-7" d="m1287.05,815.99h-604.19v125.99h629.41s0,0,0,0v-100.76c0-13.93-11.29-25.22-25.22-25.22Z"/>
          <path class="cls-15" d="m1212.56,834.86H30.65c-14.05,0-25.45,11.39-25.45,25.45v781.97c0,14.05,11.39,25.45,25.45,25.45h1181.91c14.05,0,25.45-11.39,25.45-25.45v-781.97c0-14.05-11.4-25.45-25.45-25.45Z"/>
          <path class="cls-12" d="m1235.58,922.18H1.69"/>
          <path class="cls-1" d="m1066.99,898.06c11.07,0,20.04-8.97,20.04-20.04s-8.97-20.04-20.04-20.04-20.04,8.97-20.04,20.04,8.97,20.04,20.04,20.04Z"/>
          <path class="cls-1" d="m1127.39,898.06c11.07,0,20.04-8.97,20.04-20.04s-8.97-20.04-20.04-20.04-20.04,8.97-20.04,20.04,8.97,20.04,20.04,20.04Z"/>
          <path class="cls-1" d="m1187.77,898.06c11.07,0,20.04-8.97,20.04-20.04s-8.97-20.04-20.04-20.04-20.04,8.97-20.04,20.04,8.97,20.04,20.04,20.04Z"/>
          <g>
            <g>
              <rect class="cls-8" x="238.42" y="1438.23" width="274.66" height="108.05" transform="translate(751.49 2984.51) rotate(180)"/>
              <rect class="cls-2" x="238.42" y="1412.53" width="278.15" height="108.05" transform="translate(754.98 2933.1) rotate(180)"/>
              <polyline class="cls-14" points="345.08 1463 369.05 1486.97 409.9 1446.13"/>
            </g>
            <g>
              <rect class="cls-8" x="238.42" y="1258.22" width="762.05" height="108.05" rx="45" ry="45"/>
              <rect class="cls-2" x="238.42" y="1232.52" width="766.38" height="108.05" rx="45" ry="45"/>
              <path class="cls-5" d="m297.48,1286.54h648.26"/>
            </g>
            <g>
              <rect class="cls-8" x="238.42" y="1078.22" width="762.05" height="108.05" rx="45" ry="45"/>
              <rect class="cls-2" x="238.42" y="1052.51" width="766.38" height="108.05" rx="45" ry="45"/>
              <path class="cls-5" d="m297.48,1106.53h648.26"/>
            </g>
          </g>
          <polygon class="cls-8" points="486.37 1495.41 414.67 1455.42 415.89 1537.5 439.31 1523.51 462.85 1562.92 486.48 1548.81 462.94 1509.4 486.37 1495.41"/>
          <polygon class="cls-2" points="478.29 1495.5 406.6 1455.52 407.82 1537.6 431.24 1523.61 454.78 1563.02 478.41 1548.91 454.87 1509.49 478.29 1495.5"/>
        </g>
        <g>
          <circle class="cls-8" cx="1117.53" cy="1643.01" r="214.03"/>
          <circle class="cls-2" cx="1097.17" cy="1626.56" r="214.03"/>
          <circle class="cls-17" cx="1097.17" cy="1626.56" r="37.56"/>
          <line class="cls-9" x1="1097.17" y1="1624.79" x2="1097.17" y2="1525.19"/>
          <line class="cls-9" x1="1111.34" y1="1640.73" x2="1181.76" y2="1711.15"/>
          <g>
            <circle class="cls-17" cx="930.12" cy="1626.56" r="12.52"/>
            <circle class="cls-17" cx="1261.87" cy="1626.56" r="12.52"/>
          </g>
          <g>
            <circle class="cls-17" cx="1096" cy="1460.68" r="12.52"/>
            <circle class="cls-17" cx="1096" cy="1792.44" r="12.52"/>
          </g>
          <g>
            <circle class="cls-17" cx="978.59" cy="1509.27" r="12.52"/>
            <circle class="cls-17" cx="1213.18" cy="1743.85" r="12.52"/>
          </g>
          <g>
            <circle class="cls-17" cx="1213.18" cy="1509.27" r="12.52"/>
            <circle class="cls-17" cx="978.59" cy="1743.85" r="12.52"/>
          </g>
        </g>
      </g>
      <path class="cls-13" d="m603.95,196.44l44.23,16.37-12.18,44.62"/>
      <path class="cls-13" d="m1315.39,1432.14l-46.09-10,5.8-45.89"/>
    </g>
  </g>
</svg>