<?xml version="1.0" encoding="UTF-8"?>
<svg id="Layer_1" data-name="Layer 1" xmlns="http://www.w3.org/2000/svg" viewBox="0 0 2000 2000">
  <defs>
    <style>
      .cls-1 {
        fill: #433e3b;
      }

      .cls-2 {
        fill: #fcf8cd;
      }

      .cls-3 {
        fill: #cb8626;
      }
    </style>
  </defs>
  <path class="cls-1" d="m1879.01,1141.72l-900.6,497-846.37-442.74c-77.14-34.93-74.97-279.73.79-295.94l845.58,442.38,434.19-239.63c84.34-46.53,132.52-124.82,144.8-207.69,14.81-1.06,83.84-7.78,179.64-45.97-1.7,47.56-21.94,92.68-56.49,136.57l150.17,77.08-51.29,28.29,99.59,50.65Z"/>
  <path class="cls-3" d="m1414.05,1095.28l-434.19,239.63L133.49,892.13l195.21-107.7-146.65-87.81c51.67-65.72,147.97-121.12,182.11-139.48-46.3-30.67-88.95-64.36-129.76-98.68,319.97-164.77,685.83-140.66,1104.57,96.15l69.45,36.34c202.23,105.76,205.43,394.03,5.64,504.31Z"/>
  <path class="cls-2" d="m1840.19,1073.35l23.63-13.04-158.42-82.94c30.85-43.49,46.49-86.21,48.04-129.83l.82-22.99-21.37,8.52c-55.35,22.07-100.94,33.4-131.66,39.18.57-8.59.82-17.23.72-25.89-.64-57.41-16.13-113.56-44.8-162.37-30.49-51.92-75.53-94.48-130.25-123.1l-68.87-36.02c-105.72-59.75-210.23-107.15-310.62-140.88-100.32-33.7-199.42-54.74-294.55-62.52-94.73-7.75-188.15-2.58-277.68,15.37-88.62,17.77-175.81,48.54-259.13,91.45l-53.39,27.49,45.95,38.67c25.79,21.7,53.38,44.07,83.06,66.02-43.59,26.12-101.8,66.81-141.1,116.8l-28.6,36.38,128.4,73.67-131.14,72.35c-17.81,4.73-39.98,17.36-57.33,48.99-11.36,20.71-19.27,46.93-23.51,77.93-6.13,44.78-3.73,94.75,6.58,137.08,13.09,53.75,37.56,90.37,70.8,106.01l864.55,452.28,984.58-543.35-124.73-65.3ZM245.74,692.45c41.4-37.86,92.53-67.31,119.69-81.66,32.32,20.13,66.85,39.07,103.87,55.79l-136.96,75.56-86.6-49.69Zm322.32,11c75.57,22.48,155.56,33.73,240.91,33.73,102.14,0,211.96-16.11,331.06-48.34l-20.9-77.22c-210.59,57-388.28,60.44-543.23,10.53h0c-106.62-34.39-192.03-90.02-267.32-149.32,115.33-50.48,235-75.75,360.04-75.75,201.71,0,417.31,65.82,650.64,197.77l.57.32,70.03,36.63c81.7,42.73,131.09,123.28,132.12,215.48,1.03,92.19-46.54,173.83-127.27,218.38l-415.38,229.23L217.99,896.6l350.07-193.14Zm411.27,887.73l-827.32-432.8-1.01-.53-1.04-.47c-5.42-2.45-14.45-13.07-22.08-34.92-7.99-22.87-12.53-52.25-12.8-82.71-.25-28,3.19-54.63,9.67-74.98,3.3-10.37,6.81-17.27,9.68-21.61l845.9,442.52,453.02-250.01c54.07-29.84,98.14-73.4,127.46-125.99,18.34-32.89,30.77-68.9,36.85-106.23,28.17-4.79,70.64-14.43,123.34-33.73-27.01,153.57-263.34,287.01-534.95,440.34-67.46,38.09-137.14,77.42-206.7,118.79L170.28,1005.62l-13.91,26.58,823.95,431.04,7.21-4.3c71.64-42.76,143.65-83.41,213.28-122.73,144.49-81.57,280.97-158.62,381.01-236.34,43.51-33.8,78.36-66.38,104.99-98.37l113.66,59.5-820.81,452.81-790.66-413.62-13.91,26.58,804.94,421.09,776.18-428.19,39.78,20.83-816.66,450.68Z"/>
</svg>