<?xml version="1.0" encoding="UTF-8"?>
<svg id="Layer_1" data-name="Layer 1" xmlns="http://www.w3.org/2000/svg" viewBox="0 0 2000 2000">
  <defs>
    <style>
      .cls-1 {
        fill: #faa731;
      }

      .cls-2 {
        fill: #fcf9cd;
      }

      .cls-3, .cls-4 {
        stroke-width: 58.75px;
      }

      .cls-3, .cls-4, .cls-5 {
        fill: none;
        stroke: #423e3b;
        stroke-linejoin: round;
      }

      .cls-3, .cls-5 {
        stroke-linecap: round;
      }

      .cls-5 {
        stroke-width: 29.38px;
      }
    </style>
  </defs>
  <path class="cls-2" d="m1901.24,1146.07l-900.6,497-846.37-442.74c-77.14-34.93-74.97-279.73.79-295.94l845.58,442.38,434.19-239.63c84.34-46.53,132.52-124.82,144.8-207.69,14.81-1.06,83.84-7.78,179.64-45.97-1.7,47.56-21.94,92.68-56.49,136.57l150.17,77.08-51.29,28.29,99.59,50.65Z"/>
  <path class="cls-1" d="m1436.28,1099.63l-434.19,239.63L155.72,896.49l195.21-107.7-146.65-87.81c51.67-65.72,147.97-121.12,182.11-139.48-46.3-30.67-88.95-64.36-129.76-98.68,319.97-164.77,685.83-140.66,1104.57,96.15l69.45,36.34c202.23,105.76,205.43,394.03,5.64,504.31Z"/>
  <path class="cls-3" d="m1436.27,1105.02l-434.2,239.62L155.72,901.89l430.14-237.32c-133.29-42.98-236.21-118.05-329.24-196.35,319.95-164.77,685.82-140.65,1104.55,96.16l69.45,36.32c202.22,105.77,205.45,394.05,5.65,504.32Z"/>
  <path class="cls-3" d="m585.86,664.58c144.39,46.51,324.39,55.39,565.95-9.99"/>
  <path class="cls-4" d="m1804.5,1092.53l98.19,51.41-900.62,497.02-846.36-442.76c-77.86-35.25-77.86-284.28,0-296.3"/>
  <path class="cls-3" d="m346.34,787.9l-142.07-81.52c63.5-80.78,185.67-137.15,185.67-137.15"/>
  <polyline class="cls-5" points="1705.07 986.85 1854.37 1065.02 1002.07 1535.2 204.27 1117.84"/>
  <path class="cls-5" d="m1581.04,897.51s71.2-2.9,179.65-46.14c-7.6,213.14-387.48,377.51-758.62,599.05L185.56,1023.26"/>
</svg>