<?xml version="1.0" encoding="UTF-8"?>
<svg id="Layer_1" data-name="Layer 1" xmlns="http://www.w3.org/2000/svg" viewBox="0 0 3500 2000">
  <defs>
    <style>
      .cls-1 {
        stroke: #fea82f;
      }

      .cls-1, .cls-2, .cls-3, .cls-4, .cls-5, .cls-6, .cls-7, .cls-8, .cls-9, .cls-10, .cls-11, .cls-12, .cls-13 {
        stroke-miterlimit: 10;
      }

      .cls-1, .cls-3, .cls-14, .cls-7, .cls-8, .cls-10, .cls-11, .cls-12 {
        fill: none;
      }

      .cls-1, .cls-14, .cls-10, .cls-15, .cls-11 {
        stroke-width: 3.52px;
      }

      .cls-16, .cls-9, .cls-15 {
        fill: #fff;
      }

      .cls-2 {
        fill: #fea82f;
      }

      .cls-2, .cls-3, .cls-14, .cls-4, .cls-5, .cls-6, .cls-7, .cls-8, .cls-9, .cls-10, .cls-15, .cls-11, .cls-12, .cls-13 {
        stroke: #423e3b;
      }

      .cls-2, .cls-5, .cls-7, .cls-8, .cls-9, .cls-13 {
        stroke-width: 4.15px;
      }

      .cls-3, .cls-4 {
        stroke-width: 4.15px;
      }

      .cls-17, .cls-4, .cls-5 {
        fill: #423e3b;
      }

      .cls-18 {
        fill: #e1e8f4;
      }

      .cls-14, .cls-15 {
        stroke-linejoin: round;
      }

      .cls-6 {
        stroke-linecap: round;
      }

      .cls-6, .cls-12 {
        stroke-width: 20px;
      }

      .cls-8 {
        stroke-dasharray: 0 0 7.02 7.02;
      }

      .cls-11 {
        stroke-dasharray: 0 0 7.02 7.02;
      }

      .cls-13 {
        fill: #5448c8;
      }
    </style>
  </defs>
  <path class="cls-8" d="m2410.58,1039.35c-44,188.47-166.58,346.73-331.31,438.37"/>
  <path class="cls-8" d="m1071.99,905.45c-.21-6.95-.32-13.93-.32-20.93,0-251.3,136.65-470.68,339.69-587.89"/>
  <path class="cls-4" d="m2680.19,207.83h-1182.35c-13.93,0-25.22,11.29-25.22,25.22v782.42c0,13.93,11.29,25.22,25.22,25.22h1182.35c13.93,0,25.23-11.29,25.23-25.22V233.06c0-13.93-11.29-25.22-25.23-25.22Z"/>
  <path class="cls-2" d="m2683.1,179.71h-1181.91c-14.05,0-25.45,11.39-25.45,25.45v781.97c0,14.05,11.39,25.45,25.45,25.45h1181.91c14.05,0,25.45-11.39,25.45-25.45V205.16c0-14.05-11.4-25.45-25.45-25.45Z"/>
  <path class="cls-3" d="m2706.12,267.03h-1233.89"/>
  <path class="cls-16" d="m2537.53,242.92c11.07,0,20.04-8.97,20.04-20.04s-8.97-20.04-20.04-20.04-20.04,8.97-20.04,20.04,8.97,20.04,20.04,20.04Z"/>
  <path class="cls-16" d="m2597.93,242.92c11.07,0,20.04-8.97,20.04-20.04s-8.97-20.04-20.04-20.04-20.04,8.97-20.04,20.04,8.97,20.04,20.04,20.04Z"/>
  <path class="cls-16" d="m2658.31,242.92c11.07,0,20.04-8.97,20.04-20.04s-8.97-20.04-20.04-20.04-20.04,8.97-20.04,20.04,8.97,20.04,20.04,20.04Z"/>
  <path class="cls-9" d="m2525.82,854.77v-466.65h-873.61v466.65h873.61Z"/>
  <path class="cls-5" d="m2510.5,839.45l15.13-451.32h-873.61l-15.13,451.32h873.61Z"/>
  <path class="cls-9" d="m2495.18,824.12l30.38-436.05h-873.61l-30.38,436.05h873.61Z"/>
  <path class="cls-17" d="m2272.61,260.82c-33.75,66.02-108.71,121.21-178.71,135.51l-65.37,65.37,1.45-65.37c-55.4-14.25-73.96-69.49-40.24-135.51,16.16-31.73,41.94-60.93,72.05-84.31h224.96c6.22,23.38,2.05,52.58-14.14,84.31Z"/>
  <g>
    <circle class="cls-5" cx="1721.26" cy="368.01" r="9.54"/>
    <circle class="cls-5" cx="1721.26" cy="411.04" r="9.54"/>
    <path class="cls-9" d="m1721.16,416.52c-9.22,0-15.91-11.3-15.91-26.88s6.69-26.88,15.91-26.88c2.96,0,5.36,2.4,5.36,5.36s-2.4,5.36-5.36,5.36c-1.2.2-5.18,5.63-5.18,16.15s3.98,15.95,5.19,16.15c2.96,0,5.36,2.4,5.36,5.36s-2.41,5.36-5.37,5.36Z"/>
  </g>
  <g>
    <circle class="cls-5" cx="1964.1" cy="368.01" r="9.54"/>
    <circle class="cls-5" cx="1964.1" cy="411.04" r="9.54"/>
    <path class="cls-9" d="m1964.01,416.52c-9.22,0-15.91-11.3-15.91-26.88s6.69-26.88,15.91-26.88c2.96,0,5.36,2.4,5.36,5.36s-2.4,5.36-5.36,5.36c-1.2.2-5.18,5.63-5.18,16.15s3.98,15.95,5.19,16.15c2.96,0,5.36,2.4,5.36,5.36s-2.41,5.36-5.37,5.36Z"/>
  </g>
  <g>
    <circle class="cls-5" cx="2206.95" cy="368.01" r="9.54"/>
    <circle class="cls-5" cx="2206.95" cy="411.04" r="9.54"/>
    <path class="cls-9" d="m2206.86,416.52c-9.22,0-15.91-11.3-15.91-26.88s6.69-26.88,15.91-26.88c2.96,0,5.36,2.4,5.36,5.36s-2.4,5.36-5.36,5.36c-1.2.2-5.18,5.63-5.18,16.15s3.98,15.95,5.19,16.15c2.96,0,5.36,2.4,5.36,5.36s-2.41,5.36-5.37,5.36Z"/>
  </g>
  <g>
    <circle class="cls-5" cx="2449.8" cy="368.01" r="9.54"/>
    <circle class="cls-5" cx="2449.8" cy="411.04" r="9.54"/>
    <path class="cls-9" d="m2449.7,416.52c-9.22,0-15.91-11.3-15.91-26.88s6.69-26.88,15.91-26.88c2.96,0,5.36,2.4,5.36,5.36s-2.4,5.36-5.36,5.36c-1.2.2-5.18,5.63-5.18,16.15s3.98,15.95,5.19,16.15c2.96,0,5.36,2.4,5.36,5.36s-2.41,5.36-5.37,5.36Z"/>
  </g>
  <path class="cls-15" d="m2186.84,230.71c-.02-29.8-8.44-58.99-24.3-84.22-15.86-25.23-38.51-45.48-65.36-58.42-26.85-12.94-56.8-18.05-86.41-14.73-29.61,3.31-57.7,14.91-81.02,33.46-23.32,18.55-40.94,43.3-50.84,71.41-9.89,28.11-11.66,58.44-5.1,87.51,6.57,29.07,21.19,55.7,42.21,76.83,21.01,21.13,47.56,35.91,76.59,42.64l35.77,74.47,35.8-74.47c34.89-8.1,66.02-27.77,88.29-55.83,22.27-28.05,34.39-62.82,34.37-98.65Z"/>
  <path class="cls-17" d="m2048.5,320.3c-4.67,4.63-10.79,7.51-17.34,8.13-6.55.62-13.11-1.04-18.56-4.71-5.46-3.67-9.48-9.11-11.37-15.41-1.89-6.3-1.55-13.06.97-19.12,2.52-6.07,7.08-11.08,12.88-14.17,5.8-3.09,12.5-4.08,18.94-2.8,6.45,1.29,12.25,4.77,16.43,9.85,4.17,5.08,6.45,11.45,6.46,18.03.05,3.76-.67,7.49-2.12,10.97-1.45,3.47-3.58,6.62-6.29,9.23h0Zm-32.75-64.64l-7.65-49.13v-69.79h40.65v69.79l-8.08,49.18-24.91-.05Z"/>
  <path class="cls-18" d="m2156.74,564.49h-365.19c-13.23,0-22.53-10.73-20.77-23.96l4.97-37.34c1.76-13.23,13.92-23.96,27.15-23.96h365.19c13.23,0,22.53,10.73,20.77,23.96l-4.97,37.34c-1.76,13.23-13.92,23.96-27.15,23.96Z"/>
  <path class="cls-18" d="m2343.52,735.36h-365.19c-13.23,0-22.53-10.73-20.77-23.96l4.97-37.34c1.76-13.23,13.92-23.96,27.15-23.96h365.19c13.23,0,22.53,10.73,20.77,23.96l-4.97,37.34c-1.76,13.23-13.92,23.96-27.15,23.96Z"/>
  <path class="cls-1" d="m1735.6,479.6h693.37"/>
  <path class="cls-1" d="m1729.29,564.85h693.37"/>
  <path class="cls-1" d="m1722.99,650.1h693.37"/>
  <path class="cls-1" d="m1716.68,735.36h693.37"/>
  <path class="cls-1" d="m2384.28,441.56l-24.35,329.12"/>
  <line class="cls-1" x1="2284.55" y1="441.56" x2="2260.2" y2="770.68"/>
  <line class="cls-1" x1="2184.83" y1="441.56" x2="2160.48" y2="770.68"/>
  <line class="cls-1" x1="2085.1" y1="441.56" x2="2060.75" y2="770.68"/>
  <line class="cls-1" x1="1985.37" y1="441.56" x2="1961.02" y2="770.68"/>
  <line class="cls-1" x1="1885.64" y1="441.56" x2="1861.29" y2="770.68"/>
  <path class="cls-1" d="m1785.92,441.56l-24.35,329.12"/>
  <path class="cls-7" d="m2055.61,480.69l-5.32-.35c-20.7-1.38-54.28,8.76-66.63,24.05-10.83,13.41-15.54,30.75-5.48,46.83h0c14.84,23.71,53.87,13.73,73.34,3.51h0c20.97-11.01,48.69-39.91,32.71-65.47l-.55-.88c-9.79-15.66-27.53-19.47-44.57-16.43-19.21,3.43-42.94,29.26-51.88,47.12l-4.37,8.74"/>
  <path class="cls-14" d="m2013.56,504.04c2.59-1.33,5.28-2.46,8.04-3.38.21,1.23.42,2.45.64,3.68,3.98-.86,7.97-1.71,11.95-2.57.46,1.32.71,2.71.74,4.1,6.06-1.2,12.05-2.76,17.94-4.65"/>
  <path class="cls-14" d="m2001.6,522.48c2.18-1.83,4.53-3.47,7-4.89.27,1.71.34,3.44.21,5.17,3.8-1.36,7.6-2.72,11.4-4.09.51-.18,1.04-.37,1.57-.31,1.1.11,1.89,1.22,2.02,2.32s-.25,2.19-.62,3.24c4.35-.61,8.7-1.21,13.05-1.82.27,1.34.53,2.68.8,4.02,5.98-2.39,11.91-4.92,17.77-7.59"/>
  <path class="cls-14" d="m2002.83,541.84c1.58-1.48,3.4-2.7,5.37-3.61.38-.18.84-.34,1.22-.14.78.42.3,1.83,1.01,2.35.37.27.88.17,1.32.05,2.11-.55,4.22-1.09,6.33-1.64.69,1.13,1.12,2.41,1.26,3.73,4.29-.68,8.47-2,12.37-3.92"/>
  <path class="cls-4" d="m1999.41,933.58H817.06c-13.93,0-25.22,11.29-25.22,25.22v782.42c0,13.93,11.29,25.22,25.22,25.22h1182.35c13.93,0,25.23-11.29,25.23-25.22v-782.42c0-13.93-11.29-25.22-25.23-25.22Z"/>
  <path class="cls-4" d="m2076.81,886.59h-604.19v125.99h629.41s0,0,0,0v-100.76c0-13.93-11.29-25.22-25.22-25.22Z"/>
  <path class="cls-13" d="m2002.32,905.46H820.41c-14.05,0-25.45,11.39-25.45,25.45v781.97c0,14.05,11.39,25.45,25.45,25.45h1181.91c14.05,0,25.45-11.39,25.45-25.45v-781.97c0-14.05-11.4-25.45-25.45-25.45Z"/>
  <path class="cls-3" d="m2025.34,992.78H791.45"/>
  <path class="cls-16" d="m1856.74,968.67c11.07,0,20.04-8.97,20.04-20.04s-8.97-20.04-20.04-20.04-20.04,8.97-20.04,20.04,8.97,20.04,20.04,20.04Z"/>
  <path class="cls-16" d="m1917.15,968.67c11.07,0,20.04-8.97,20.04-20.04s-8.97-20.04-20.04-20.04-20.04,8.97-20.04,20.04,8.97,20.04,20.04,20.04Z"/>
  <path class="cls-16" d="m1977.52,968.67c11.07,0,20.04-8.97,20.04-20.04s-8.97-20.04-20.04-20.04-20.04,8.97-20.04,20.04,8.97,20.04,20.04,20.04Z"/>
  <rect class="cls-5" x="1028.17" y="1508.83" width="274.66" height="108.05" transform="translate(2331 3125.71) rotate(180)"/>
  <rect class="cls-9" x="1028.17" y="1483.13" width="278.15" height="108.05" transform="translate(2334.49 3074.3) rotate(180)"/>
  <polyline class="cls-12" points="1134.83 1533.6 1158.81 1557.57 1199.66 1516.73"/>
  <rect class="cls-5" x="1028.17" y="1328.82" width="762.05" height="108.05" rx="45" ry="45"/>
  <rect class="cls-9" x="1028.17" y="1303.12" width="766.38" height="108.05" rx="45" ry="45"/>
  <path class="cls-11" d="m1087.24,1357.14h648.26"/>
  <rect class="cls-5" x="1028.17" y="1148.82" width="762.05" height="108.05" rx="45" ry="45"/>
  <rect class="cls-9" x="1028.17" y="1123.11" width="766.38" height="108.05" rx="45" ry="45"/>
  <path class="cls-11" d="m1087.24,1177.14h648.26"/>
  <polygon class="cls-5" points="1276.12 1566.01 1204.43 1526.02 1205.65 1608.1 1229.07 1594.11 1252.61 1633.52 1276.24 1619.41 1252.7 1580 1276.12 1566.01"/>
  <polygon class="cls-9" points="1268.05 1566.1 1196.36 1526.12 1197.58 1608.2 1221 1594.21 1244.54 1633.62 1268.17 1619.51 1244.63 1580.09 1268.05 1566.1"/>
  <circle class="cls-5" cx="1907.29" cy="1713.61" r="214.03"/>
  <circle class="cls-9" cx="1886.93" cy="1697.16" r="214.03"/>
  <circle class="cls-17" cx="1886.93" cy="1697.16" r="37.56"/>
  <line class="cls-6" x1="1886.93" y1="1695.39" x2="1886.93" y2="1595.79"/>
  <line class="cls-6" x1="1901.09" y1="1711.33" x2="1971.52" y2="1781.75"/>
  <circle class="cls-17" cx="1719.88" cy="1697.16" r="12.52"/>
  <circle class="cls-17" cx="2051.63" cy="1697.16" r="12.52"/>
  <circle class="cls-17" cx="1885.75" cy="1531.28" r="12.52"/>
  <circle class="cls-17" cx="1885.75" cy="1863.04" r="12.52"/>
  <circle class="cls-17" cx="1768.35" cy="1579.87" r="12.52"/>
  <circle class="cls-17" cx="2002.94" cy="1814.45" r="12.52"/>
  <circle class="cls-17" cx="2002.94" cy="1579.87" r="12.52"/>
  <circle class="cls-17" cx="1768.35" cy="1814.45" r="12.52"/>
  <path class="cls-10" d="m1393.7,267.04l44.23,16.37-12.18,44.62"/>
  <path class="cls-10" d="m2105.14,1502.74l-46.09-10,5.8-45.89"/>
</svg>