<?xml version="1.0" encoding="UTF-8"?>
<svg id="Layer_2" data-name="Layer 2" xmlns="http://www.w3.org/2000/svg" viewBox="0 0 3278.69 1026.09">
  <defs>
    <style>
      .cls-1 {
        fill: #433e3b;
      }

      .cls-2 {
        fill: #fcf8cd;
      }

      .cls-3 {
        fill: #cb8626;
      }
    </style>
  </defs>
  <g id="Layer_1-2" data-name="Layer 1">
    <g>
      <g>
        <path class="cls-1" d="m1318.7,639.37l-644.07,355.43L69.34,678.17c-55.17-24.98-53.61-200.05.57-211.64l604.72,316.37,310.51-171.37c60.32-33.28,94.77-89.27,103.55-148.53,10.59-.76,59.96-5.57,128.47-32.88-1.22,34.01-15.69,66.28-40.4,97.67l107.4,55.13-36.68,20.23,71.22,36.22Z"/>
        <path class="cls-3" d="m986.18,606.15l-310.51,171.37L70.38,460.88l139.6-77.02-104.88-62.8c36.95-47,105.82-86.62,130.23-99.75-33.11-21.93-63.61-46.03-92.8-70.57,228.83-117.84,490.47-100.59,789.93,68.76l49.67,25.99c144.63,75.63,146.92,281.79,4.03,360.66Z"/>
        <path class="cls-2" d="m1290.94,590.47l16.9-9.32-113.29-59.31c22.06-31.1,33.25-61.65,34.36-92.85l.59-16.44-15.28,6.09c-39.58,15.78-72.18,23.89-94.15,28.02.41-6.15.59-12.32.52-18.52-.46-41.06-11.54-81.21-32.04-116.12-21.8-37.13-54.01-67.57-93.15-88.04l-49.25-25.76c-75.61-42.73-150.35-76.63-222.14-100.75-71.74-24.1-142.61-39.15-210.65-44.71-67.75-5.54-134.56-1.84-198.58,10.99-63.38,12.71-125.73,34.71-185.32,65.4l-38.18,19.66,32.86,27.66c18.44,15.52,38.18,31.52,59.4,47.22-31.18,18.68-72.8,47.78-100.91,83.53l-20.45,26.02,91.83,52.69-93.79,51.74c-12.74,3.38-28.6,12.42-41,35.04-8.12,14.81-13.78,33.56-16.81,55.73-4.38,32.03-2.67,67.76,4.71,98.04,9.36,38.44,26.86,64.63,50.64,75.82l618.29,323.45,704.13-388.58-89.2-46.7ZM150.66,318.07c29.61-27.08,66.18-48.14,85.59-58.4,23.12,14.4,47.81,27.94,74.28,39.9l-97.95,54.04-61.93-35.54Zm230.51,7.87c54.05,16.07,111.25,24.12,172.29,24.12,73.05,0,151.58-11.52,236.76-34.57l-14.95-55.23c-150.6,40.77-277.68,43.23-388.49,7.53h0c-76.25-24.59-137.33-64.38-191.17-106.79,82.48-36.1,168.06-54.18,257.48-54.18,144.25,0,298.44,47.07,465.31,141.44l.41.23,50.08,26.19c58.43,30.56,93.75,88.17,94.49,154.1.74,65.93-33.29,124.32-91.02,156.17l-297.06,163.94L130.82,464.07l250.35-138.13Zm294.12,634.87L83.63,651.29l-.72-.38-.74-.34c-3.87-1.75-10.33-9.34-15.79-24.97-5.71-16.36-8.96-37.36-9.16-59.15-.18-20.02,2.28-39.07,6.91-53.62,2.36-7.42,4.87-12.35,6.93-15.46l604.95,316.47,323.98-178.79c38.67-21.34,70.18-52.49,91.15-90.1,13.12-23.52,22-49.28,26.35-75.97,20.15-3.43,50.52-10.32,88.21-24.12-19.31,109.83-188.33,205.25-382.57,314.91-48.25,27.24-98.08,55.37-147.82,84.96L96.69,542.03l-9.95,19.01,589.25,308.26,5.15-3.08c51.23-30.58,102.73-59.65,152.53-87.77,103.33-58.34,200.94-113.44,272.48-169.02,31.12-24.18,56.04-47.47,75.08-70.35l81.28,42.55-587.01,323.83L110.07,609.67l-9.95,19.01,575.66,301.15,555.09-306.22,28.45,14.89-584.04,322.31Z"/>
      </g>
      <g>
        <path class="cls-2" d="m1717.09,327.38c0-104.05,62.29-168.33,159.71-168.33s157.06,58.98,157.06,159.71-62.29,168.33-158.39,168.33-158.39-60.31-158.39-159.71Zm210.74,1.99c0-97.42-20.54-161.7-55.67-161.7-31.81,0-49.04,53.68-49.04,148.45s20.54,161.7,55.67,161.7c31.81,0,49.04-53.02,49.04-148.45Z"/>
        <path class="cls-2" d="m2070.97,327.38c0-104.05,62.29-168.33,159.71-168.33s157.06,58.98,157.06,159.71-62.29,168.33-158.39,168.33-158.39-60.31-158.39-159.71Zm210.74,1.99c0-97.42-20.54-161.7-55.67-161.7-31.81,0-49.04,53.68-49.04,148.45s20.54,161.7,55.67,161.7c31.81,0,49.04-53.02,49.04-148.45Z"/>
        <path class="cls-2" d="m2559.39,470.52l15.91,1.99v7.95h-159.71v-7.95l11.93-1.99c11.27-1.99,14.58-7.95,15.24-23.86,3.31-133.2,1.33-298.22-1.99-401.6,0-11.27-3.98-16.57-15.24-18.56-7.29-.66-14.58-1.33-21.87-2.65v-7.95c43.74-3.31,90.79-7.95,132.54-13.25h6.63c-1.99,167,0,292.92,1.33,444.68,0,14.58,3.98,21.21,15.24,23.19Zm218.03,1.99v7.95h-125.91c-29.16-59.64-60.97-123.93-96.09-182.25l89.47-64.28c-13.92-21.87-29.16-42.41-43.74-61.63v-7.29h141.82l.66,7.95-93.44,67.6-.66.66-5.3,3.31c34.46,72.9,72.24,148.45,108.68,214.72,3.98,7.29,7.29,9.94,13.25,11.27l11.27,1.99Z"/>
        <path class="cls-2" d="m1775.02,558.21c-30.48,0-58.32,10.6-95.43,32.47v-279.52c.23-4.9.39-9.85.39-14.94,0-84.16-37.11-136.52-103.38-136.52-30.48,0-58.32,10.6-95.43,32.47V0h-6.63c-45.73,7.29-89.47,13.92-129.89,17.23v7.95c7.29,1.33,14.58,1.99,22.53,2.65,10.6,1.99,15.24,6.63,15.91,17.89,1.99,131.88,2.65,355.21-1.99,436.73h7.95c4.64-10.6,11.93-19.88,19.88-28.5,23.2,18.56,62.3,33.14,105.37,33.14,24.71,0,47.44-4.36,67.61-12.8,1.65,133.48,1.9,331.06-2.4,406.66h7.95c4.64-10.6,11.93-19.88,19.88-28.5,23.19,18.56,62.29,33.14,105.37,33.14,98.74,0,165.68-69.58,165.68-190.86,0-84.16-37.11-136.52-103.38-136.52Zm-248.79-80.4c-29.16,0-45.06-33.8-45.06-78.2v-195.5c13.92-9.28,24.52-13.92,36.45-13.92,40.43,0,59.64,51.03,59.64,145.8,0,105.37-19.88,141.82-51.03,141.82Zm198.42,398.5c-29.16,0-45.06-33.8-45.06-78.2v-195.5c13.92-9.28,24.52-13.92,36.45-13.92,40.43,0,59.64,51.03,59.64,145.8,0,105.37-19.88,141.82-51.03,141.82Z"/>
        <path class="cls-2" d="m2246.2,861.07v7.95c-36.45,3.31-71.57,7.29-113.32,13.25l-5.96-.66-6.63-39.76-13.25,8.62c-20.54,15.24-55,35.79-98.08,35.79-45.73,0-76.21-26.51-75.55-79.53,0-62.29,1.99-143.81-.66-211.4,0-9.94-5.3-14.58-14.58-16.57l-17.23-2.65v-8.62l124.59-4.64,6.63,1.99c-2.65,90.79-2.65,162.36-.66,231.29.66,34.46,8.62,58.98,35.12,58.98,18.56,0,36.45-11.27,51.03-27.17,1.99-69.58,1.33-160.38-1.33-232.61,0-9.94-3.98-14.58-12.59-16.57l-17.89-2.65v-8.62l123.26-4.64,6.63,1.99c-1.99,91.45-1.99,194.84,0,273.7.66,13.92,5.96,19.88,18.56,21.87l11.93.66Z"/>
        <path class="cls-2" d="m2603.4,871.01v7.95h-159.71v-7.95l15.91-1.99c10.6-2.65,14.58-9.28,14.58-23.86,2.65-73.56,1.99-140.49,0-204.78-1.33-33.8-7.95-53.02-33.14-53.02-15.91,0-34.46,11.27-49.04,23.19-1.33,77.54-3.31,160.38-.66,235.26.66,14.58,4.64,20.54,15.24,23.19l15.24,1.99v7.95h-159.71v-7.95l12.59-1.99c10.6-2.65,14.58-8.62,15.24-23.86,1.99-76.21,1.99-157.06,0-239.9-.66-15.91-8.62-21.21-20.54-23.86l-13.92-.66-.66-7.95c41.09-2.65,79.53-7.29,127.9-15.24l5.3.66,3.31,39.76,11.93-7.29c18.56-10.6,53.02-33.14,96.76-33.14s76.87,25.18,75.55,77.54c-.66,66.93-1.33,135.19.66,210.08,0,15.24,4.64,21.21,14.58,23.86l12.59,1.99Z"/>
        <path class="cls-2" d="m2962.58,871.01v7.95h-159.71v-7.95l15.91-1.99c10.6-2.65,14.58-9.28,14.58-23.86,2.65-73.56,1.99-140.49,0-204.78-1.33-33.8-7.95-53.02-33.14-53.02-15.91,0-34.46,11.27-49.04,23.19-1.33,77.54-3.31,160.38-.66,235.26.66,14.58,4.64,20.54,15.24,23.19l15.24,1.99v7.95h-159.71v-7.95l12.59-1.99c10.6-2.65,14.58-8.62,15.24-23.86,1.99-76.21,1.99-157.06,0-239.9-.66-15.91-8.62-21.21-20.54-23.86l-13.92-.66-.66-7.95c41.09-2.65,79.53-7.29,127.9-15.24l5.3.66,3.31,39.76,11.93-7.29c18.56-10.6,53.02-33.14,96.76-33.14s76.87,25.18,75.55,77.54c-.66,66.93-1.33,135.19.66,210.08,0,15.24,4.64,21.21,14.58,23.86l12.59,1.99Z"/>
        <path class="cls-2" d="m3152.78,564.18h125.91v8.62c-7.95,5.96-23.86,28.5-37.11,51.69-11.27,19.88-21.21,38.44-29.82,59.64l-41.09,106.03c6.63,13.92,12.59,27.17,18.56,40.43-24.52,25.85-45.73,46.39-58.98,65.61l-49.7,129.89c-28.5-5.3-58.98-8.62-90.79-11.27l.66-7.29c45.73-29.82,86.15-61.63,123.93-94.1,1.33-3.31,2.65-5.96,3.31-9.28-41.09-102.06-92.78-222.01-135.86-314.79-4.64-9.94-9.94-13.92-20.54-15.24l-10.6-1.33v-8.62h167.67v8.62l-15.91,1.33c-11.93.66-15.91,7.95-12.59,17.23,16.57,47.05,44.4,116.64,76.21,187.55,11.93-31.81,24.52-63.62,37.11-95.43,4.64-13.92,3.31-23.19-2.65-33.8-13.25-23.86-34.46-67.6-47.72-76.87v-8.62Z"/>
      </g>
    </g>
  </g>
</svg>